<?xml version="1.0" standalone="no"?>
<!DOCTYPE svg PUBLIC "-//W3C//DTD SVG 20010904//EN"
 "http://www.w3.org/TR/2001/REC-SVG-20010904/DTD/svg10.dtd">
<svg version="1.0" xmlns="http://www.w3.org/2000/svg"
 width="500.000000pt" height="500.000000pt" viewBox="0 0 500.000000 500.000000"
 preserveAspectRatio="xMidYMid meet">

<g transform="translate(0.000000,500.000000) scale(0.100000,-0.100000)"
fill="#000000" stroke="none">
<path d="M2416 3915 c-87 -31 -150 -124 -149 -220 1 -107 64 -199 156 -227
l37 -11 -58 -111 c-32 -61 -126 -238 -207 -394 -113 -214 -162 -297 -202 -341
-177 -197 -464 -251 -698 -134 -60 31 -336 191 -349 203 -5 5 2 22 18 40 14
17 33 57 42 87 44 150 -72 299 -231 298 -131 -1 -235 -105 -235 -235 0 -137
105 -240 245 -240 l60 0 186 -638 186 -637 1285 -3 1284 -2 173 592 c96 326
180 614 188 641 l14 47 52 0 c74 0 117 15 165 56 62 53 82 98 82 187 0 64 -4
79 -29 120 -68 106 -201 144 -309 88 -139 -72 -174 -240 -78 -366 l24 -31
-185 -108 c-202 -118 -256 -141 -366 -156 -197 -28 -411 61 -531 221 -40 53
-443 807 -435 813 2 1 23 11 47 21 53 23 118 94 132 144 54 195 -124 364 -314
296z m123 -1631 c60 -42 58 -138 -2 -174 -50 -31 -93 -26 -133 14 -49 49 -45
114 10 158 27 22 94 23 125 2z m-777 -374 c39 -30 52 -71 38 -114 -25 -78
-111 -101 -172 -47 -28 25 -33 36 -33 76 0 40 5 51 33 76 39 35 96 39 134 9z
m1548 5 c37 -19 50 -43 50 -95 0 -58 -42 -100 -100 -100 -52 0 -76 13 -95 50
-52 100 45 197 145 145z"/>
<path d="M1259 1168 l28 -103 1208 -3 c665 -1 1213 2 1218 7 7 7 57 175 57
193 0 5 -571 8 -1269 8 l-1269 0 27 -102z"/>
</g>
</svg>
